<svg width="581" height="515" viewBox="0 0 581 515" fill="none" xmlns="http://www.w3.org/2000/svg">
<path d="M406.314 382.478L291.981 415.73V364.252L367.182 351.134C371.857 350.534 372.66 347.562 372.646 344.623V316.389C372.66 314.632 372.381 308.749 365.291 309.824L291.981 318.357V104.142L406.314 137.401V382.478ZM306.415 329.976L359.46 323.807V337.076L306.415 329.976ZM285.401 351.987L214.795 339.365L248.303 335.54L322.68 345.483L285.401 351.987ZM278.796 415.666L175.818 384.961V345.819L278.799 364.231V415.666H278.796ZM175.818 306.064V134.893L278.799 104.206V318.336L175.818 306.064ZM414.753 126.1L287.231 89.0052C286.239 88.7124 285.158 88.4943 283.51 89.012L167.342 123.628C164.552 124.464 162.632 127.039 162.632 129.964V311.928C162.632 315.281 165.13 318.096 168.452 318.493L223.592 325.068L168.477 331.365C165.779 331.718 162.6 333.015 162.632 337.926V389.889C162.632 392.815 164.552 395.39 167.342 396.218L283.51 430.856C285.404 431.292 286.625 431.049 287.231 430.867L414.753 393.786C417.562 392.961 419.507 390.382 419.507 387.439V132.439C419.507 129.5 417.562 126.918 414.753 126.1ZM354.721 183.428L359.46 182.8V253.346H354.721V183.428ZM348.127 266.557H366.051C369.359 266.408 372.696 264.55 372.646 259.95V175.253C372.692 173.924 372.999 169.838 367.182 168.738L349.258 165.606C347.313 165.242 345.368 165.798 343.891 167.055C342.46 168.255 341.597 169.881 341.529 172.109V259.95C341.529 263.6 344.48 266.551 348.127 266.557Z" fill="black"/>
<path d="M554.279 286.987L554.5 293.841L561.131 293.628V286.987H554.279ZM525.846 343.905L519.06 344.848L519.07 344.922L519.082 344.997L525.846 343.905ZM528.929 366.192L522.124 366.993L522.126 367.005L522.128 367.017L528.929 366.192ZM510.773 435.453L506.204 430.342L506.182 430.362L506.16 430.383L510.773 435.453ZM433.352 452.939H426.5V459.797H433.352V452.939ZM433.352 398.422V391.565H426.5V398.422H433.352ZM461.443 393.622L456.598 388.773L461.443 393.622ZM463.498 348.705L456.681 349.387L456.686 349.435L456.691 349.483L463.498 348.705ZM469.322 276.358L463.787 272.316L463.751 272.365L463.716 272.416L469.322 276.358ZM497.07 260.243L498.318 266.986L503.921 265.947V260.243H497.07ZM497.07 259.557H503.921V253.853L498.318 252.814L497.07 259.557ZM469.322 243.442L463.716 247.384L463.751 247.435L463.787 247.485L469.322 243.442ZM463.498 171.095L456.691 170.317L456.686 170.365L456.681 170.413L463.498 171.095ZM433.352 121.378H426.5V128.236H433.352V121.378ZM433.352 66.8608V60.0033H426.5V66.8608H433.352ZM510.773 84.3475L506.16 89.4173L506.182 89.4379L506.204 89.4578L510.773 84.3475ZM528.929 153.951L535.731 154.776L535.732 154.765L535.734 154.752L528.929 153.951ZM525.846 175.895L519.082 174.804L519.07 174.878L519.06 174.952L525.846 175.895ZM529.614 226.298L525.303 231.628L525.364 231.677L525.425 231.725L529.614 226.298ZM554.279 232.47H561.131V225.748L554.416 225.614L554.279 232.47ZM554.059 280.133C542.79 280.497 533.163 282.837 526.228 288.137C518.931 293.713 515.569 301.815 515.569 311.332H529.272C529.272 305.304 531.22 301.577 534.542 299.038C538.227 296.224 544.529 294.163 554.5 293.841L554.059 280.133ZM515.569 311.332C515.569 317.148 516.79 328.488 519.06 344.848L532.632 342.961C530.335 326.406 529.272 316.03 529.272 311.332H515.569ZM519.082 344.997C520.207 351.978 521.221 359.31 522.124 366.993L535.734 365.391C534.81 357.53 533.769 350.004 532.61 342.813L519.082 344.997ZM522.128 367.017C523.016 374.358 523.448 380.817 523.448 386.421H537.151C537.151 380.139 536.668 373.112 535.731 365.367L522.128 367.017ZM523.448 386.421C523.448 405.931 517.477 420.248 506.204 430.342L515.341 440.563C530.104 427.342 537.151 408.971 537.151 386.421H523.448ZM506.16 430.383C494.943 440.607 479.393 446.082 458.702 446.082V459.797C481.86 459.797 501.024 453.614 515.386 440.522L506.16 430.383ZM458.702 446.082H433.352V459.797H458.702V446.082ZM440.203 452.939V398.422H426.5V452.939H440.203ZM433.352 405.28H445.684V391.565H433.352V405.28ZM445.684 405.28C453.737 405.28 461.206 403.557 466.287 398.471L456.598 388.773C455.285 390.087 452.249 391.565 445.684 391.565V405.28ZM466.287 398.471C471.18 393.574 473.09 386.877 473.09 379.564H459.387C459.387 384.595 458.1 387.27 456.598 388.773L466.287 398.471ZM473.09 379.564C473.09 374.522 472.119 363.816 470.305 347.927L456.691 349.483C458.531 365.596 459.387 375.462 459.387 379.564H473.09ZM470.315 348.023C468.252 327.365 467.266 314.352 467.266 308.589H453.564C453.564 315.168 454.634 328.9 456.681 349.387L470.315 348.023ZM467.266 308.589C467.266 296.601 469.989 287.334 474.928 280.301L463.716 272.416C456.778 282.297 453.564 294.518 453.564 308.589H467.266ZM474.856 280.401C479.791 273.631 487.342 269.02 498.318 266.986L495.822 253.5C482.133 256.037 471.185 262.17 463.787 272.316L474.856 280.401ZM503.921 260.243V259.557H490.219V260.243H503.921ZM498.318 252.814C487.342 250.78 479.791 246.169 474.856 239.4L463.787 247.485C471.185 257.63 482.133 263.763 495.822 266.3L498.318 252.814ZM474.928 239.5C469.989 232.466 467.266 223.199 467.266 211.212H453.564C453.564 225.283 456.778 237.503 463.716 247.384L474.928 239.5ZM467.266 211.212C467.266 205.448 468.252 192.435 470.315 171.778L456.681 170.413C454.634 190.9 453.564 204.632 453.564 211.212H467.266ZM470.305 171.874C472.118 155.998 473.09 145.396 473.09 140.579H459.387C459.387 144.448 458.532 154.191 456.691 170.317L470.305 171.874ZM473.09 140.579C473.09 133.122 471.223 126.269 466.287 121.329L456.598 131.027C458.057 132.488 459.387 135.236 459.387 140.579H473.09ZM466.287 121.329C461.206 116.243 453.737 114.521 445.684 114.521V128.236C452.249 128.236 455.285 129.713 456.598 131.027L466.287 121.329ZM445.684 114.521H433.352V128.236H445.684V114.521ZM440.203 121.378V66.8608H426.5V121.378H440.203ZM433.352 73.7184H458.702V60.0033H433.352V73.7184ZM458.702 73.7184C479.393 73.7184 494.943 79.1934 506.16 89.4173L515.386 79.2778C501.024 66.1863 481.86 60.0033 458.702 60.0033V73.7184ZM506.204 89.4578C517.477 99.5527 523.448 113.869 523.448 133.379H537.151C537.151 110.829 530.104 92.4579 515.341 79.2373L506.204 89.4578ZM523.448 133.379C523.448 138.986 523.016 145.566 522.124 153.15L535.734 154.752C536.669 146.793 537.151 139.658 537.151 133.379H523.448ZM522.128 153.126C521.224 160.585 520.209 167.811 519.082 174.804L532.61 176.987C533.767 169.807 534.807 162.404 535.731 154.776L522.128 153.126ZM519.06 174.952C516.787 191.328 515.569 202.771 515.569 208.812H529.272C529.272 203.88 530.337 193.379 532.632 176.839L519.06 174.952ZM515.569 208.812C515.569 218.069 518.496 226.112 525.303 231.628L533.925 220.969C531.14 218.712 529.272 215.098 529.272 208.812H515.569ZM525.425 231.725C532.225 236.984 542.285 239.089 554.142 239.326L554.416 225.614C543.436 225.394 537.053 223.385 533.803 220.872L525.425 231.725ZM547.428 232.47V286.987H561.131V232.47H547.428Z" fill="black"/>
<path d="M26.0355 233.156L25.8985 226.3L19.1841 226.434V233.156H26.0355ZM50.358 226.984L46.1687 221.558L46.1074 221.605L46.0471 221.654L50.358 226.984ZM54.4689 176.581L61.2551 175.638L61.2448 175.564L61.2329 175.49L54.4689 176.581ZM51.3857 154.637L44.5812 155.438L44.5827 155.45L44.5841 155.462L51.3857 154.637ZM69.1994 85.0333L64.631 79.9231L64.6085 79.943L64.5861 79.9635L69.1994 85.0333ZM146.963 67.5466H153.814V60.6891H146.963V67.5466ZM146.963 122.064V128.921H153.814V122.064H146.963ZM118.872 126.864L114.028 122.015L118.872 126.864ZM116.817 171.781L123.634 171.099L123.629 171.051L123.624 171.003L116.817 171.781ZM110.65 244.128L105.116 240.085L105.08 240.135L105.045 240.185L110.65 244.128ZM83.2448 260.243L81.9972 253.5L76.3934 254.539V260.243H83.2448ZM83.2448 260.929H76.3934V266.633L81.9972 267.672L83.2448 260.929ZM110.65 277.044L105.045 280.986L105.08 281.037L105.116 281.086L110.65 277.044ZM116.817 349.391L123.624 350.169L123.629 350.121L123.634 350.073L116.817 349.391ZM118.872 394.308L114.028 399.157L118.872 394.308ZM146.963 399.108H153.814V392.25H146.963V399.108ZM146.963 453.625V460.483H153.814V453.625H146.963ZM69.1994 436.138L64.5861 441.208L64.6085 441.229L64.631 441.249L69.1994 436.138ZM51.3857 366.878L58.1873 367.702L58.1888 367.691L58.1902 367.678L51.3857 366.878ZM54.4689 344.591L61.2329 345.682L61.2448 345.608L61.2551 345.534L54.4689 344.591ZM26.0355 287.673H19.1841V294.313L25.8146 294.527L26.0355 287.673ZM26.1725 240.012C37.9844 239.775 48.0394 237.686 54.6689 232.314L46.0471 221.654C43.0847 224.054 36.9246 226.079 25.8985 226.3L26.1725 240.012ZM54.5473 232.41C61.6269 226.935 64.746 218.867 64.746 209.497H51.0432C51.0432 215.671 49.1379 219.261 46.1687 221.558L54.5473 232.41ZM64.746 209.497C64.746 203.457 63.5275 192.013 61.2551 175.638L47.6826 177.525C49.9779 194.065 51.0432 204.565 51.0432 209.497H64.746ZM61.2329 175.49C60.1061 168.497 59.0907 161.271 58.1873 153.812L44.5841 155.462C45.5078 163.09 46.5479 170.493 47.7049 177.673L61.2329 175.49ZM58.1902 153.836C57.2988 146.252 56.8669 139.671 56.8669 134.065H43.164C43.164 140.344 43.6456 147.479 44.5812 155.438L58.1902 153.836ZM56.8669 134.065C56.8669 114.517 62.7496 100.188 73.8125 90.1031L64.5861 79.9635C50.0706 93.1944 43.164 111.553 43.164 134.065H56.8669ZM73.7679 90.1435C85.2324 79.8771 100.928 74.4041 121.613 74.4041V60.6891C98.4488 60.6891 79.2018 66.874 64.631 79.9231L73.7679 90.1435ZM121.613 74.4041H146.963V60.6891H121.613V74.4041ZM140.112 67.5466V122.064H153.814V67.5466H140.112ZM146.963 115.206H134.63V128.921H146.963V115.206ZM134.63 115.206C126.578 115.206 119.109 116.929 114.028 122.015L123.717 131.713C125.03 130.399 128.066 128.921 134.63 128.921V115.206ZM114.028 122.015C109.092 126.955 107.225 133.807 107.225 141.265H120.928C120.928 135.922 122.257 133.174 123.717 131.713L114.028 122.015ZM107.225 141.265C107.225 146.082 108.197 156.684 110.01 172.559L123.624 171.003C121.783 154.876 120.928 145.134 120.928 141.265H107.225ZM110 172.463C112.063 193.121 113.048 206.134 113.048 211.897H126.751C126.751 205.318 125.681 191.586 123.634 171.099L110 172.463ZM113.048 211.897C113.048 223.834 110.237 233.063 105.116 240.085L116.185 248.17C123.397 238.278 126.751 226.02 126.751 211.897H113.048ZM105.045 240.185C100.351 246.871 92.969 251.467 81.9972 253.5L84.4924 266.986C98.1857 264.448 109.075 258.3 116.256 248.07L105.045 240.185ZM76.3934 260.243V260.929H90.0962V260.243H76.3934ZM81.9972 267.672C92.969 269.705 100.351 274.301 105.045 280.986L116.256 273.102C109.075 262.872 98.1857 256.724 84.4924 254.186L81.9972 267.672ZM105.116 281.086C110.237 288.109 113.048 297.338 113.048 309.274H126.751C126.751 295.152 123.397 282.893 116.185 273.001L105.116 281.086ZM113.048 309.274C113.048 315.038 112.063 328.051 110 348.708L123.634 350.073C125.681 329.586 126.751 315.854 126.751 309.274H113.048ZM110.01 348.612C108.196 364.502 107.225 375.208 107.225 380.25H120.928C120.928 376.148 121.784 366.282 123.624 350.169L110.01 348.612ZM107.225 380.25C107.225 387.563 109.135 394.26 114.028 399.157L123.717 389.459C122.215 387.955 120.928 385.28 120.928 380.25H107.225ZM114.028 399.157C119.109 404.243 126.578 405.965 134.63 405.965V392.25C128.066 392.25 125.03 390.773 123.717 389.459L114.028 399.157ZM134.63 405.965H146.963V392.25H134.63V405.965ZM140.112 399.108V453.625H153.814V399.108H140.112ZM146.963 446.768H121.613V460.483H146.963V446.768ZM121.613 446.768C100.928 446.768 85.2324 441.295 73.7679 431.028L64.631 441.249C79.2018 454.298 98.4488 460.483 121.613 460.483V446.768ZM73.8125 431.069C62.7496 420.984 56.8669 406.655 56.8669 387.107H43.164C43.164 409.618 50.0706 427.977 64.5861 441.208L73.8125 431.069ZM56.8669 387.107C56.8669 381.503 57.2984 375.043 58.1873 367.702L44.5841 366.053C43.646 373.798 43.164 380.825 43.164 387.107H56.8669ZM58.1902 367.678C59.0933 359.995 60.1079 352.664 61.2329 345.682L47.7049 343.499C46.5461 350.69 45.5052 358.216 44.5812 366.077L58.1902 367.678ZM61.2551 345.534C63.5254 329.173 64.746 317.834 64.746 312.017H51.0432C51.0432 316.716 49.98 327.092 47.6826 343.647L61.2551 345.534ZM64.746 312.017C64.746 302.5 61.3843 294.398 54.0874 288.823C47.1514 283.523 37.5249 281.183 26.2564 280.819L25.8146 294.527C35.7855 294.849 42.0885 296.91 45.7723 299.724C49.095 302.263 51.0432 305.99 51.0432 312.017H64.746ZM32.8869 287.673V233.156H19.1841V287.673H32.8869Z" fill="black"/>
</svg>
